
<!-- Generator: visioncortex VTracer 0.6.4 -->
<svg version="1.1" xmlns="http://www.w3.org/2000/svg" viewBox="0 0 500 500" preserveAspectRatio="xMidYMid meet">
<path d="M0 0 C165 0 330 0 500 0 C500 165 500 330 500 500 C335 500 170 500 0 500 C0 335 0 170 0 0 Z " fill="#FEFEFE" transform="translate(0,0)"/>
<path d="M0 0 C5.239 5.507 6.409 9.85 6.25 17.309 C5.815 21.989 4.17 24.757 1 28.125 C-7.019 33.137 -14.635 34.652 -24 34 C-24 33.01 -24 32.02 -24 31 C-23.131 30.902 -22.262 30.804 -21.367 30.703 C-11.223 29.525 -11.223 29.525 -3.625 23.25 C-2.293 18.456 -2.497 14.424 -4.125 9.812 C-8.783 2.825 -14.759 0.033 -22.892 -1.675 C-43.735 -4.89 -67.371 -0.412 -84.602 11.852 C-90.512 16.368 -95.585 20.754 -98 28 C-98.489 32.967 -98.642 34.988 -95.938 39.25 C-87.032 48.379 -73.196 49.223 -61.25 51.375 C-36.542 55.972 -36.542 55.972 -29 61 C-26.907 61.062 -26.907 61.062 -24.688 60.688 C-23.58 60.539 -23.58 60.539 -22.449 60.387 C-20.76 60.12 -19.078 59.813 -17.402 59.473 C-1.834 57.31 15.415 57.473 28.863 66.352 C33.155 69.663 35.513 72.332 36.504 77.762 C36.978 85.636 34.945 90.936 30 97 C21.777 106.099 10.327 112.898 -2 114 C-2.844 114.081 -3.689 114.162 -4.559 114.246 C-10.518 114.545 -15.163 113.617 -20 110 C-23.438 105.928 -24.781 102.077 -26 97 C-26.389 97.557 -26.779 98.114 -27.18 98.688 C-40.455 116.796 -62.665 125.364 -84.205 129.112 C-93.4 130.526 -102.714 130.737 -112 131 C-112.33 131.99 -112.66 132.98 -113 134 C-111.02 134.33 -109.04 134.66 -107 135 C-107 135.99 -107 136.98 -107 138 C-107.905 137.952 -107.905 137.952 -108.828 137.902 C-111.465 137.941 -113.506 138.119 -116 139 C-122.068 146.912 -121.836 158.547 -121 168 C-118.881 175.496 -114.379 180.707 -108 185 C-99.845 189.304 -92.606 190.854 -83.438 190.688 C-81.741 190.668 -81.741 190.668 -80.01 190.648 C-69.531 190.328 -60.621 188.008 -51 184 C-50.243 183.695 -49.486 183.39 -48.706 183.076 C-28.3 174.785 -9.569 163.772 6.188 148.25 C6.962 147.491 6.962 147.491 7.753 146.716 C11.515 142.865 14.3 138.646 17 134 C4.197 134.461 -8.55 135.404 -21.312 136.5 C-22.084 136.566 -22.856 136.631 -23.651 136.699 C-25.889 136.89 -28.126 137.085 -30.363 137.281 C-31.666 137.395 -32.968 137.509 -34.31 137.627 C-37.892 137.989 -41.437 138.487 -45 139 C-46.812 139.062 -48.625 139.087 -50.438 139.062 C-51.302 139.053 -52.167 139.044 -53.059 139.035 C-54.02 139.018 -54.02 139.018 -55 139 C-55.495 136.525 -55.495 136.525 -56 134 C-43.118 124.133 -25.889 124.367 -10.375 124.25 C-8.507 124.223 -6.639 124.194 -4.772 124.165 C-0.295 124.098 4.182 124.053 8.659 124.019 C11.855 123.993 15.051 123.952 18.246 123.914 C32.898 123.784 47.633 123.804 62 127 C62 127.66 62 128.32 62 129 C57.095 130.248 52.575 131.106 47.512 131.254 C35.874 131.507 35.874 131.507 26.293 137.273 C23.597 140.81 21.446 144.631 19.353 148.547 C17.54 151.834 15.464 154.909 13.37 158.021 C3.457 172.809 -5.896 188.079 -14.766 203.512 C-15.355 204.532 -15.944 205.553 -16.551 206.604 C-17.659 208.533 -18.756 210.469 -19.84 212.412 C-20.331 213.267 -20.822 214.123 -21.328 215.004 C-21.75 215.755 -22.172 216.506 -22.606 217.28 C-24.286 219.353 -25.4 219.645 -28 220 C-29.197 207.547 -21.346 196.798 -15.441 186.367 C-12.42 181.01 -9.685 175.533 -7 170 C-6.335 168.666 -5.669 167.332 -5 166 C-5.695 166.522 -6.39 167.044 -7.105 167.582 C-17.14 174.844 -27.888 180.555 -39 186 C-39.738 186.363 -40.476 186.726 -41.236 187.1 C-47.164 189.884 -53.224 191.591 -59.562 193.188 C-60.552 193.447 -61.541 193.707 -62.561 193.975 C-79.583 198.346 -98.57 199.053 -115 192 C-122.078 187.691 -127.083 182.265 -131 175 C-131.509 174.099 -131.509 174.099 -132.027 173.18 C-136.133 164.439 -134.957 152.77 -132.098 143.805 C-118.76 109.725 -89.06 87.222 -57 72 C-55.351 71.149 -55.351 71.149 -53.668 70.281 C-51 69 -51 69 -49 69 C-49 68.34 -49 67.68 -49 67 C-49.99 66.869 -50.98 66.739 -52.001 66.604 C-58.379 65.691 -64.649 64.193 -70.932 62.781 C-72.512 62.429 -74.094 62.082 -75.677 61.74 C-87.955 59.091 -99.723 56.323 -108.25 46.375 C-111.262 40.566 -111.778 34.755 -110 28.438 C-104.561 14.585 -91.104 5.912 -78.12 -0.116 C-71.652 -2.814 -64.809 -4.418 -58 -6 C-57.029 -6.235 -56.059 -6.469 -55.059 -6.711 C-37.388 -10.625 -15.284 -11 0 0 Z " fill="#0A1D3C" transform="translate(307,139)"/>
<path d="M0 0 C0.99 0.66 1.98 1.32 3 2 C3 3.92 2.991 5.84 2.906 7.758 C3.064 11.526 4.524 14.557 6 18 C7.435 15.513 8.049 13.688 8.5 10.812 C8.665 9.884 8.83 8.956 9 8 C9.66 7.67 10.32 7.34 11 7 C11.33 6.01 11.66 5.02 12 4 C12.66 4 13.32 4 14 4 C15.473 9.089 14.416 12.381 12.844 17.223 C10.583 24.663 9.23 31.504 11.492 39.062 C12 41 12 41 12 45 C12.99 45 13.98 45 15 45 C14.67 46.32 14.34 47.64 14 49 C-32.589 60.892 -32.589 60.892 -45 60 C-44.67 59.01 -44.34 58.02 -44 57 C-43.232 45.671 -47.729 39.428 -55 31 C-54.67 30.34 -54.34 29.68 -54 29 C-52.35 29.99 -50.7 30.98 -49 32 C-48.67 31.67 -48.34 31.34 -48 31 C-48.038 29.06 -48.156 27.121 -48.312 25.188 C-48.391 24.129 -48.47 23.071 -48.551 21.98 C-48.974 19.17 -49.67 17.461 -51 15 C-51.125 12.25 -51.125 12.25 -51 10 C-50.34 10 -49.68 10 -49 10 C-49 10.99 -49 11.98 -49 13 C-47.68 13 -46.36 13 -45 13 C-43.979 14.654 -42.984 16.324 -42 18 C-39.772 20.133 -37.411 22.078 -35 24 C-32.994 23.29 -32.994 23.29 -31 22 C-29.173 17.846 -28.899 13.181 -29 8.688 C-29 5.29 -28.843 3.764 -27 1 C-25.148 1.207 -25.148 1.207 -23 2 C-21.727 4.074 -21.727 4.074 -20.625 6.688 C-18.347 11.552 -16.275 14.705 -12 18 C-9.264 18.586 -9.264 18.586 -7 17 C-4.192 12.086 -3.491 7.593 -3 2 C-2.01 2.33 -1.02 2.66 0 3 C0 2.01 0 1.02 0 0 Z " fill="#B5701B" transform="translate(256,67)"/>
<path d="M0 0 C5.239 5.507 6.409 9.85 6.25 17.309 C5.815 21.989 4.17 24.757 1 28.125 C-7.019 33.137 -14.635 34.652 -24 34 C-24 33.01 -24 32.02 -24 31 C-23.131 30.902 -22.262 30.804 -21.367 30.703 C-11.223 29.525 -11.223 29.525 -3.625 23.25 C-2.293 18.456 -2.497 14.424 -4.125 9.812 C-8.783 2.825 -14.759 0.033 -22.892 -1.675 C-43.735 -4.89 -67.371 -0.412 -84.602 11.852 C-90.512 16.368 -95.585 20.754 -98 28 C-98.489 32.967 -98.642 34.988 -95.938 39.25 C-87.031 48.379 -73.196 49.222 -61.25 51.375 C-33.37 56.58 -33.37 56.58 -29 62 C-30.114 62.412 -31.228 62.825 -32.375 63.25 C-36.587 64.822 -40.744 66.513 -44.898 68.23 C-47 69 -47 69 -49 69 C-49 68.34 -49 67.68 -49 67 C-49.99 66.869 -50.98 66.739 -52.001 66.604 C-58.379 65.691 -64.649 64.193 -70.932 62.781 C-72.512 62.429 -74.094 62.082 -75.677 61.74 C-87.955 59.091 -99.723 56.323 -108.25 46.375 C-111.262 40.566 -111.778 34.755 -110 28.438 C-104.561 14.585 -91.104 5.912 -78.12 -0.116 C-71.652 -2.814 -64.809 -4.418 -58 -6 C-56.544 -6.352 -56.544 -6.352 -55.059 -6.711 C-37.388 -10.625 -15.284 -11 0 0 Z " fill="#747476" transform="translate(307,139)"/>
<path d="M0 0 C1.442 0.002 1.442 0.002 2.914 0.005 C12.546 0.171 21.61 2.016 29.125 8.375 C31.512 11.319 32.087 13.026 32.5 16.812 C31.745 23.988 27.681 29.44 22.223 33.945 C12.433 40.991 1.158 44.185 -10.875 42.375 C-14.206 40.76 -16.198 38.729 -17.875 35.375 C-18.139 31.934 -18.32 28.5 -18.48 25.053 C-18.341 21.41 -18.341 21.41 -19.875 18.375 C-20.112 15.683 -20.297 13.01 -20.438 10.312 C-20.481 9.554 -20.524 8.795 -20.568 8.014 C-20.675 6.134 -20.775 4.255 -20.875 2.375 C-13.869 0.728 -7.194 -0.013 0 0 Z " fill="#FBFBFB" transform="translate(305.875,205.625)"/>
<path d="M0 0 C2.524 3.785 2.684 6.628 2 11 C-2.73 26.196 -17.603 35.346 -30.809 42.527 C-41.632 47.819 -54.314 51.197 -66.375 51.062 C-67.964 51.049 -67.964 51.049 -69.586 51.035 C-70.383 51.024 -71.179 51.012 -72 51 C-70.618 47.945 -68.995 45.67 -66.75 43.188 C-64.114 40.265 -64.114 40.265 -61.594 37.242 C-57.112 31.64 -51.631 27.4 -46 23 C-45.094 22.267 -44.188 21.533 -43.254 20.777 C-11.717 -4.023 -11.717 -4.023 0 0 Z " fill="#FAFAFB" transform="translate(271,214)"/>
<path d="M0 0 C3.307 3.235 3.849 7.041 4.562 11.438 C4.687 12.145 4.811 12.852 4.939 13.581 C5.706 18.001 6.361 22.434 7 26.875 C8.605 37.357 11.311 46.311 19 54 C21.318 54.719 23.651 55.391 26 56 C25.01 58.31 24.02 60.62 23 63 C22.361 62.381 21.721 61.762 21.062 61.125 C17.72 58.806 15.429 58.299 11.523 57.547 C-0.212 55.004 -9.893 49.994 -16.492 39.773 C-20.978 31.522 -24.079 22.16 -21.375 12.848 C-18.989 7.299 -14.879 3.457 -10 0 C-6.205 -1.265 -3.876 -0.9 0 0 Z " fill="#767678" transform="translate(158,209)"/>
<path d="M0 0 C1.938 0.375 1.938 0.375 4 1 C4.495 1.99 4.495 1.99 5 3 C4.34 3.33 3.68 3.66 3 4 C3.351 11.455 5.03 18.34 7.062 25.484 C8 29 8 29 8.5 32.391 C8.665 33.252 8.83 34.113 9 35 C9.99 35.495 9.99 35.495 11 36 C11.093 34.732 11.093 34.732 11.188 33.438 C12.383 28.38 14.846 24.339 19.312 21.562 C19.869 21.377 20.426 21.191 21 21 C20.399 25.007 18.334 27.555 15.938 30.75 C14.837 32.227 14.837 32.227 13.715 33.734 C13.149 34.482 12.583 35.23 12 36 C12.99 36.495 12.99 36.495 14 37 C12.68 37.66 11.36 38.32 10 39 C11.32 40.32 12.64 41.64 14 43 C13.34 44.32 12.68 45.64 12 47 C10.35 46.67 8.7 46.34 7 46 C7 46.66 7 47.32 7 48 C10.3 48 13.6 48 17 48 C13.548 51.452 11.608 51.889 6.938 53.062 C5.935 53.318 5.935 53.318 4.913 53.58 C0.323 54.733 -4.283 55.718 -8.949 56.508 C-11.065 56.932 -11.065 56.932 -13.082 58.055 C-15 59 -15 59 -18 59 C-17.67 58.01 -17.34 57.02 -17 56 C-16.232 44.671 -20.729 38.428 -28 30 C-27.67 29.34 -27.34 28.68 -27 28 C-25.35 28.99 -23.7 29.98 -22 31 C-21.67 30.67 -21.34 30.34 -21 30 C-21.038 28.06 -21.156 26.121 -21.312 24.188 C-21.391 23.129 -21.47 22.071 -21.551 20.98 C-21.974 18.17 -22.67 16.461 -24 14 C-24.125 11.25 -24.125 11.25 -24 9 C-23.34 9 -22.68 9 -22 9 C-22 9.99 -22 10.98 -22 12 C-20.68 12 -19.36 12 -18 12 C-16.979 13.654 -15.984 15.324 -15 17 C-12.772 19.133 -10.411 21.078 -8 23 C-5.994 22.29 -5.994 22.29 -4 21 C-2.173 16.846 -1.899 12.181 -2 7.688 C-2 4.29 -1.843 2.764 0 0 Z " fill="#CD8F27" transform="translate(229,68)"/>
<path d="M0 0 C1.442 2.884 1.094 5.417 1.062 8.625 C1.053 9.814 1.044 11.002 1.035 12.227 C1.024 13.142 1.012 14.057 1 15 C0.01 15.33 -0.98 15.66 -2 16 C-1.979 16.678 -1.959 17.356 -1.938 18.055 C-2.153 27.785 -6.419 32.566 -13.191 39.121 C-34.037 57.216 -62.389 61.743 -89 61 C-88.34 59.35 -87.68 57.7 -87 56 C-86.236 56.035 -85.471 56.07 -84.684 56.105 C-61.63 56.688 -39.928 48.048 -23.16 32.234 C-16.961 25.822 -12.874 20.127 -12.637 11.062 C-13.127 8.277 -14.459 6.341 -16 4 C-13.709 3.33 -11.417 2.664 -9.125 2 C-8.474 1.809 -7.823 1.618 -7.152 1.422 C-2.227 0 -2.227 0 0 0 Z " fill="#6E6F72" transform="translate(285,208)"/>
<path d="M0 0 C1.938 0.375 1.938 0.375 4 1 C4.33 1.66 4.66 2.32 5 3 C4.01 3.495 4.01 3.495 3 4 C3.351 11.455 5.03 18.34 7.062 25.484 C8 29 8 29 8.5 32.391 C8.665 33.252 8.83 34.113 9 35 C9.99 35.495 9.99 35.495 11 36 C11.093 34.732 11.093 34.732 11.188 33.438 C12.383 28.38 14.846 24.339 19.312 21.562 C19.869 21.377 20.426 21.191 21 21 C20.399 25.007 18.334 27.555 15.938 30.75 C14.837 32.227 14.837 32.227 13.715 33.734 C13.149 34.482 12.583 35.23 12 36 C12.99 36.495 12.99 36.495 14 37 C6.804 40.065 0.835 41.612 -7 41 C-7.33 40.34 -7.66 39.68 -8 39 C-4.37 38.34 -0.74 37.68 3 37 C1.105 35.728 -0.791 34.457 -2.688 33.188 C-3.743 32.48 -4.799 31.772 -5.887 31.043 C-7.822 29.773 -9.783 28.542 -11.781 27.375 C-14.197 25.878 -15.453 24.361 -17 22 C-17.33 22.66 -17.66 23.32 -18 24 C-18.99 24 -19.98 24 -21 24 C-22.317 18.994 -23.358 14.135 -24 9 C-23.34 9 -22.68 9 -22 9 C-22 9.99 -22 10.98 -22 12 C-20.68 12 -19.36 12 -18 12 C-16.979 13.654 -15.984 15.324 -15 17 C-12.772 19.133 -10.411 21.078 -8 23 C-5.994 22.29 -5.994 22.29 -4 21 C-2.173 16.846 -1.899 12.181 -2 7.688 C-2 4.29 -1.843 2.764 0 0 Z M-14 30 C-13.34 30 -12.68 30 -12 30 C-9.848 33.228 -9.799 34.284 -10 38 C-12.154 35.378 -13.401 33.356 -14 30 Z " fill="#E7B64B" transform="translate(229,68)"/>
<path d="M0 0 C2.051 0.033 4.102 0.065 6.152 0.098 C8.187 3.827 9.152 5.767 9.152 10.098 C10.142 10.098 11.132 10.098 12.152 10.098 C11.822 11.418 11.492 12.738 11.152 14.098 C-15.845 20.989 -15.845 20.989 -27.535 23.535 C-28.256 23.699 -28.977 23.862 -29.72 24.03 C-34.833 25.11 -39.623 25.226 -44.848 25.098 C-43.858 23.613 -43.858 23.613 -42.848 22.098 C-40.781 21.691 -40.781 21.691 -38.285 21.598 C-33.91 21.284 -30.272 20.422 -26.164 18.93 C-23.562 17.995 -20.936 17.197 -18.285 16.41 C-17.438 16.159 -16.591 15.907 -15.719 15.648 C-15.101 15.467 -14.484 15.285 -13.848 15.098 C-14.508 14.438 -15.168 13.778 -15.848 13.098 C-16.064 9.702 -15.928 7.34 -14.848 4.098 C-12.16 3.184 -12.16 3.184 -8.848 2.473 C-5.865 1.818 -2.785 0.147 0 0 Z " fill="#B67119" transform="translate(258.84765625,101.90234375)"/>
<path d="M0 0 C2.125 0.375 2.125 0.375 4 1 C5.634 7.329 7.149 13.654 8.438 20.062 C10.619 30.274 13.763 38.58 20 47 C19.01 47.495 19.01 47.495 18 48 C8.615 44.425 2.09 36.97 -2 28 C-4.532 20.508 -6.677 12.787 -3.625 5.188 C-2 2 -2 2 0 0 Z " fill="#F9F9F9" transform="translate(148,213)"/>
<path d="M0 0 C2.252 2.688 3.882 4.646 5 8 C6.326 8.361 7.661 8.689 9 9 C10.705 10.066 12.37 11.197 14 12.375 C14.846 12.981 15.691 13.587 16.562 14.211 C18.719 15.794 20.865 17.389 23 19 C19.278 21.112 16.13 21.381 11.926 21.656 C10.973 21.826 10.973 21.826 10 22 C9.67 22.66 9.34 23.32 9 24 C4.06 25.365 4.06 25.365 1 25 C-1.424 23.26 -2.882 21.042 -4.5 18.562 C-5.161 17.626 -5.161 17.626 -5.836 16.67 C-6.917 15.131 -7.962 13.568 -9 12 C-8.67 11.34 -8.34 10.68 -8 10 C-6.35 10.99 -4.7 11.98 -3 13 C-1.503 11.503 -1.668 10.012 -1.438 7.938 C-1.293 6.638 -1.149 5.339 -1 4 C-0.34 4 0.32 4 1 4 C0.67 2.68 0.34 1.36 0 0 Z M2 6 C3 9 3 9 3 9 Z M4 10 C5 12 5 12 5 12 Z M7 11 C6.34 11.66 5.68 12.32 5 13 C5.99 15.31 6.98 17.62 8 20 C8.33 20 8.66 20 9 20 C9 17.36 9 14.72 9 12 C8.34 11.67 7.68 11.34 7 11 Z M5 25 C7.97 25.495 7.97 25.495 11 26 C11 28.97 11 31.94 11 35 C9.35 35.33 7.7 35.66 6 36 C6.33 35.34 6.66 34.68 7 34 C7.66 34 8.32 34 9 34 C9 32.35 9 30.7 9 29 C6.03 28.505 6.03 28.505 3 28 C3.66 27.01 4.32 26.02 5 25 Z " fill="#D0932A" transform="translate(210,86)"/>
<path d="M0 0 C0.99 0.66 1.98 1.32 3 2 C3 2.66 3 3.32 3 4 C2.546 4.434 2.092 4.869 1.625 5.316 C-0.365 7.378 -1.031 9.252 -2 11.938 C-3.253 15.4 -4.419 18.321 -7 21 C-9.761 21.528 -12.164 21.186 -15 21 C-13.68 22.65 -12.36 24.3 -11 26 C-11.277 26.543 -11.554 27.085 -11.84 27.645 C-12.202 28.36 -12.564 29.075 -12.938 29.812 C-13.297 30.52 -13.657 31.228 -14.027 31.957 C-15.107 34.118 -15.107 34.118 -16 37 C-16.99 36.67 -17.98 36.34 -19 36 C-19.676 34.285 -19.676 34.285 -20.098 32.062 C-20.259 31.249 -20.421 30.436 -20.588 29.598 C-20.745 28.74 -20.901 27.883 -21.062 27 C-21.386 25.333 -21.71 23.667 -22.035 22 C-22.19 21.172 -22.345 20.345 -22.504 19.492 C-23.139 16.303 -23.918 13.156 -24.728 10.008 C-25.035 7.739 -24.686 6.168 -24 4 C-23.34 4 -22.68 4 -22 4 C-21.697 4.592 -21.394 5.183 -21.082 5.793 C-17.455 12.643 -17.455 12.643 -12 18 C-9.319 18.497 -9.319 18.497 -7 17 C-4.192 12.086 -3.491 7.593 -3 2 C-2.01 2.33 -1.02 2.66 0 3 C0 2.01 0 1.02 0 0 Z M-5 19 C-4.01 19.495 -4.01 19.495 -3 20 C-3.99 20.495 -3.99 20.495 -5 21 C-5 20.34 -5 19.68 -5 19 Z M-7 21 C-6.34 21 -5.68 21 -5 21 C-5.33 21.99 -5.66 22.98 -6 24 C-6.33 23.01 -6.66 22.02 -7 21 Z M-9 22 C-8.34 22.33 -7.68 22.66 -7 23 C-7.99 23.33 -8.98 23.66 -10 24 C-10.33 24.66 -10.66 25.32 -11 26 C-11.33 25.01 -11.66 24.02 -12 23 C-11.01 22.67 -10.02 22.34 -9 22 Z " fill="#D0932B" transform="translate(256,67)"/>
<path d="M0 0 C0.33 0 0.66 0 1 0 C1.66 3.96 2.32 7.92 3 12 C2.34 12 1.68 12 1 12 C0.909 13.178 0.909 13.178 0.816 14.379 C0.372 19.954 -0.121 25.476 -1 31 C-2.912 31.7 -4.83 32.385 -6.75 33.062 C-7.817 33.445 -8.885 33.828 -9.984 34.223 C-12.923 34.98 -14.223 35.072 -17 34 C-14.539 29.361 -11.926 25.539 -8.367 21.676 C-6.87 19.84 -5.847 18.215 -5 16 C-5.33 15.01 -5.66 14.02 -6 13 C-5.039 10.117 -5.039 10.117 -3.625 6.875 C-3.164 5.8 -2.702 4.725 -2.227 3.617 C-1 1 -1 1 0 0 Z M-7 15 C-6.67 15.66 -6.34 16.32 -6 17 C-6.66 16.67 -7.32 16.34 -8 16 C-7.67 15.67 -7.34 15.34 -7 15 Z M-16 16 C-13.309 16.176 -10.671 16.618 -8 17 C-10.36 19.36 -11.779 19.491 -15 20 C-15.66 19.01 -16.32 18.02 -17 17 C-16.67 16.67 -16.34 16.34 -16 16 Z M-13 20 C-12.67 20.66 -12.34 21.32 -12 22 C-12.99 21.67 -13.98 21.34 -15 21 C-14.34 20.67 -13.68 20.34 -13 20 Z " fill="#A96314" transform="translate(257,71)"/>
<path d="M0 0 C0.66 0 1.32 0 2 0 C2 0.99 2 1.98 2 3 C3.32 3 4.64 3 6 3 C6.392 3.681 6.784 4.361 7.188 5.062 C9.532 8.863 12.544 10.865 16.137 13.449 C16.752 13.961 17.366 14.473 18 15 C18 15.66 18 16.32 18 17 C18.784 17.144 19.567 17.289 20.375 17.438 C23 18 23 18 25 19 C25 19.66 25 20.32 25 21 C25.66 21 26.32 21 27 21 C27 21.66 27 22.32 27 23 C25.68 22.67 24.36 22.34 23 22 C22.67 22.66 22.34 23.32 22 24 C20.291 23.028 18.583 22.055 16.879 21.074 C15.346 20.198 13.8 19.345 12.25 18.5 C9.879 16.919 8.553 15.37 7 13 C6.67 13.66 6.34 14.32 6 15 C5.01 15 4.02 15 3 15 C1.683 9.994 0.642 5.135 0 0 Z M10 21 C10.66 21 11.32 21 12 21 C14.152 24.228 14.201 25.284 14 29 C11.846 26.378 10.599 24.356 10 21 Z " fill="#E9BD58" transform="translate(205,77)"/>
<path d="M0 0 C2.051 0.033 4.102 0.065 6.152 0.098 C8.187 3.827 9.152 5.767 9.152 10.098 C4.532 10.758 -0.088 11.418 -4.848 12.098 C-4.848 10.098 -4.848 10.098 -2.848 8.098 C-3.178 7.108 -3.508 6.118 -3.848 5.098 C-7.478 5.098 -11.108 5.098 -14.848 5.098 C-11.832 3.59 -9.824 2.741 -6.66 2.035 C-4.019 1.386 -2.433 0.129 0 0 Z " fill="#8E490B" transform="translate(258.84765625,101.90234375)"/>
<path d="M0 0 C3.481 3.481 6.214 8.085 7 13 C6.113 12.319 5.226 11.639 4.312 10.938 C1.247 8.642 1.247 8.642 -1.562 9.562 C-2.367 9.707 -3.171 9.851 -4 10 C-6.812 7.75 -6.812 7.75 -9 5 C-9 4.01 -9 3.02 -9 2 C-8.257 2.536 -7.515 3.073 -6.75 3.625 C-5.843 4.079 -4.935 4.532 -4 5 C-1.697 4.309 -1.697 4.309 0 3 C0 2.01 0 1.02 0 0 Z M-1 12 C-0.072 12.165 0.856 12.33 1.812 12.5 C4.956 13.077 4.956 13.077 8 13 C8 13.99 8 14.98 8 16 C5.36 16.33 2.72 16.66 0 17 C-0.33 15.35 -0.66 13.7 -1 12 Z M4 17 C6.97 17.495 6.97 17.495 10 18 C10 20.97 10 23.94 10 27 C8.35 27.33 6.7 27.66 5 28 C5.33 27.34 5.66 26.68 6 26 C6.66 26 7.32 26 8 26 C8 24.35 8 22.7 8 21 C5.03 20.505 5.03 20.505 2 20 C2.66 19.01 3.32 18.02 4 17 Z " fill="#B36E19" transform="translate(211,94)"/>
<path d="M0 0 C1.938 0.375 1.938 0.375 4 1 C4.33 1.66 4.66 2.32 5 3 C4.01 3.495 4.01 3.495 3 4 C3.354 11.533 5.08 18.469 7.16 25.68 C8 29 8 29 8 33 C5.554 32.047 4.267 31.489 2.988 29.145 C0.761 21.46 0.308 13.964 0 6 C-0.66 6 -1.32 6 -2 6 C-1.34 4.02 -0.68 2.04 0 0 Z " fill="#F4D273" transform="translate(229,68)"/>
<path d="M0 0 C0.66 1.98 1.32 3.96 2 6 C5.3 6 8.6 6 12 6 C7.716 10.284 2.892 11.113 -3 11.125 C-3.99 11.084 -4.98 11.043 -6 11 C-6 10.34 -6 9.68 -6 9 C-6.66 9 -7.32 9 -8 9 C-8.188 5.625 -8.188 5.625 -8 2 C-4.772 -0.152 -3.716 -0.201 0 0 Z " fill="#F7DD8E" transform="translate(234,110)"/>
<path d="M0 0 C0.33 0.99 0.66 1.98 1 3 C-0.408 5.196 -1.817 7.161 -3.438 9.188 C-4.088 10.026 -4.088 10.026 -4.752 10.881 C-5.825 12.261 -6.912 13.632 -8 15 C-7.34 15.33 -6.68 15.66 -6 16 C-13.196 19.065 -19.165 20.612 -27 20 C-27.33 19.34 -27.66 18.68 -28 18 C-26.861 17.801 -26.861 17.801 -25.699 17.598 C-24.705 17.421 -23.711 17.244 -22.688 17.062 C-21.701 16.888 -20.715 16.714 -19.699 16.535 C-16.918 16.043 -16.918 16.043 -14 15 C-13.67 14.34 -13.34 13.68 -13 13 C-12.01 13.66 -11.02 14.32 -10 15 C-9.588 13.969 -9.175 12.938 -8.75 11.875 C-6.663 7.021 -4.466 2.977 0 0 Z " fill="#F4D57F" transform="translate(249,89)"/>
<path d="M0 0 C1.339 0.783 2.671 1.577 4 2.375 C5.114 3.036 5.114 3.036 6.25 3.711 C6.827 4.136 7.405 4.562 8 5 C8 5.66 8 6.32 8 7 C8.784 7.144 9.567 7.289 10.375 7.438 C13 8 13 8 15 9 C15 9.66 15 10.32 15 11 C15.66 11 16.32 11 17 11 C17 11.66 17 12.32 17 13 C15.68 12.67 14.36 12.34 13 12 C12.67 12.66 12.34 13.32 12 14 C1.296 8.333 1.296 8.333 -0.875 2.75 C-0.916 2.172 -0.958 1.595 -1 1 C-0.67 0.67 -0.34 0.34 0 0 Z " fill="#F6D575" transform="translate(215,87)"/>
<path d="M0 0 C0.33 0.99 0.66 1.98 1 3 C0.01 4.485 0.01 4.485 -1 6 C-3.31 5.67 -5.62 5.34 -8 5 C-8 3.68 -8 2.36 -8 1 C-9.647 1.475 -11.293 1.955 -12.938 2.438 C-14.312 2.838 -14.312 2.838 -15.715 3.246 C-17.94 3.79 -17.94 3.79 -19 5 C-19.368 7.328 -19.702 9.662 -20 12 C-20.33 12 -20.66 12 -21 12 C-21.33 8.7 -21.66 5.4 -22 2 C-19.463 1.271 -16.923 0.567 -14.375 -0.125 C-13.662 -0.333 -12.949 -0.54 -12.215 -0.754 C-7.556 -1.993 -4.479 -2.301 0 0 Z " fill="#BD7A1D" transform="translate(242,109)"/>
<path d="M0 0 C2.31 0.66 4.62 1.32 7 2 C4.191 4.809 1.889 4.727 -2 5 C-2.99 4.34 -3.98 3.68 -5 3 C-3.68 3 -2.36 3 -1 3 C-0.67 2.01 -0.34 1.02 0 0 Z M-9 4 C-7.68 4.33 -6.36 4.66 -5 5 C-6.32 5.99 -7.64 6.98 -9 8 C-9 6.68 -9 5.36 -9 4 Z M-3.938 6.938 C-2.483 6.968 -2.483 6.968 -1 7 C-0.67 8.32 -0.34 9.64 0 11 C-0.804 11.412 -1.609 11.825 -2.438 12.25 C-5.343 14.234 -5.37 14.743 -6 18 C-7.485 18.99 -7.485 18.99 -9 20 C-8.67 19.01 -8.34 18.02 -8 17 C-7.957 15.459 -7.96 13.916 -8 12.375 C-8.038 10.917 -8.046 9.458 -8 8 C-7 7 -7 7 -3.938 6.938 Z " fill="#E0AB40" transform="translate(220,107)"/>
<path d="M0 0 C0 0.99 0 1.98 0 3 C-17.856 7.592 -17.856 7.592 -26 7 C-25.34 6.01 -24.68 5.02 -24 4 C-21.934 3.594 -21.934 3.594 -19.438 3.5 C-14.919 3.193 -11.218 2.179 -6.984 0.633 C-4.595 -0.129 -2.491 -0.241 0 0 Z " fill="#8E4C10" transform="translate(240,120)"/>
<path d="M0 0 C0.66 0 1.32 0 2 0 C3.611 5.713 2.09 9.687 0 15 C-1.98 15.33 -3.96 15.66 -6 16 C-5.552 14.019 -5.091 12.04 -4.625 10.062 C-4.242 8.409 -4.242 8.409 -3.852 6.723 C-3.571 5.824 -3.29 4.926 -3 4 C-2.34 3.67 -1.68 3.34 -1 3 C-0.67 2.01 -0.34 1.02 0 0 Z " fill="#D2962E" transform="translate(268,71)"/>
<path d="M0 0 C0.33 0 0.66 0 1 0 C1 3.63 1 7.26 1 11 C-0.912 11.7 -2.83 12.385 -4.75 13.062 C-5.817 13.445 -6.885 13.828 -7.984 14.223 C-10.923 14.98 -12.223 15.072 -15 14 C-14.031 13.752 -13.061 13.505 -12.062 13.25 C-11.052 12.838 -10.041 12.425 -9 12 C-8.238 10.118 -8.238 10.118 -8 8 C-6.438 5.75 -6.438 5.75 -5 4 C-5 5.98 -5 7.96 -5 10 C-4.01 9.67 -3.02 9.34 -2 9 C-1.856 7.701 -1.711 6.401 -1.562 5.062 C-1.125 1.125 -1.125 1.125 0 0 Z " fill="#D59C34" transform="translate(255,91)"/>
<path d="M0 0 C-0.309 1.626 -0.622 3.251 -0.938 4.875 C-1.112 5.78 -1.286 6.685 -1.465 7.617 C-2 10 -2 10 -3 12 C-3.66 11.67 -4.32 11.34 -5 11 C-5 10.01 -5 9.02 -5 8 C-6.65 9.32 -8.3 10.64 -10 12 C-9.568 7.248 -8.672 5.08 -5 2 C-5.33 1.34 -5.66 0.68 -6 0 C-2.25 -1.125 -2.25 -1.125 0 0 Z " fill="#B77219" transform="translate(268,87)"/>
<path d="M0 0 C0 0.66 0 1.32 0 2 C-2.602 2.698 -5.206 3.383 -7.812 4.062 C-8.55 4.262 -9.288 4.461 -10.049 4.666 C-15.66 6.113 -15.66 6.113 -19 5 C-19.66 4.34 -20.32 3.68 -21 3 C-20.229 2.867 -19.458 2.734 -18.664 2.598 C-17.661 2.421 -16.658 2.244 -15.625 2.062 C-14.627 1.888 -13.63 1.714 -12.602 1.535 C-4.765 -0.077 -4.765 -0.077 0 0 Z " fill="#86420B" transform="translate(270,114)"/>
<path d="M0 0 C1.046 1.638 2.04 3.31 3 5 C4.296 6.37 5.62 7.715 7 9 C6.01 9.66 5.02 10.32 4 11 C0.016 8.837 -2.89 6.288 -6 3 C-3.375 0 -3.375 0 0 0 Z " fill="#F8E198" transform="translate(202,89)"/>
<path d="M0 0 C0.99 0.66 1.98 1.32 3 2 C3 2.66 3 3.32 3 4 C2.546 4.433 2.092 4.866 1.625 5.312 C-0.376 7.391 -1.033 9.293 -2 12 C-3.194 15.342 -4.143 17.792 -7 20 C-9.188 19.688 -9.188 19.688 -11 19 C-10.402 18.814 -9.804 18.629 -9.188 18.438 C-6.006 16.346 -5.037 13.526 -4 10 C-3.514 7.322 -3.238 4.717 -3 2 C-2.01 2.33 -1.02 2.66 0 3 C0 2.01 0 1.02 0 0 Z " fill="#FAE6A2" transform="translate(256,67)"/>
<path d="M0 0 C0.66 0.33 1.32 0.66 2 1 C2.364 7.464 2.487 14.289 -1 20 C-3.109 20.746 -3.109 20.746 -5 21 C-4.546 19.763 -4.093 18.525 -3.625 17.25 C-1.727 11.611 -0.845 5.875 0 0 Z " fill="#CE912A" transform="translate(228,73)"/>
<path d="M0 0 C0.66 0 1.32 0 2 0 C2.289 0.619 2.577 1.237 2.875 1.875 C3.937 4.133 3.937 4.133 6 6 C5.381 6.557 4.762 7.114 4.125 7.688 C1.939 10.066 1.012 11.964 0 15 C-2.504 11.245 -1.961 10.131 -1.125 5.812 C-0.921 4.726 -0.718 3.639 -0.508 2.52 C-0.34 1.688 -0.173 0.857 0 0 Z " fill="#884208" transform="translate(258,83)"/>
<path d="M0 0 C1.207 0.031 1.207 0.031 2.438 0.062 C2.438 1.052 2.438 2.043 2.438 3.062 C2.458 4.073 2.479 5.084 2.5 6.125 C2.438 9.062 2.438 9.062 1.438 11.062 C-0.873 11.062 -3.183 11.062 -5.562 11.062 C-5.893 9.412 -6.222 7.763 -6.562 6.062 C-5.903 6.722 -5.243 7.382 -4.562 8.062 C-3.243 8.062 -1.923 8.062 -0.562 8.062 C-0.232 6.412 0.097 4.763 0.438 3.062 C-0.882 2.403 -2.202 1.743 -3.562 1.062 C-2.562 0.062 -2.562 0.062 0 0 Z " fill="#8C470A" transform="translate(241.5625,105.9375)"/>
<path d="M0 0 C-2 3 -2 3 -4.383 3.73 C-5.288 3.881 -6.193 4.032 -7.125 4.188 C-8.49 4.425 -8.49 4.425 -9.883 4.668 C-10.581 4.778 -11.28 4.887 -12 5 C-12 4.34 -12 3.68 -12 3 C-12.66 2.34 -13.32 1.68 -14 1 C-12.423 0.44 -10.838 -0.097 -9.25 -0.625 C-8.368 -0.927 -7.487 -1.228 -6.578 -1.539 C-3.59 -2.073 -2.501 -1.624 0 0 Z " fill="#B06D1E" transform="translate(252,118)"/>
<path d="M0 0 C2.475 0.99 2.475 0.99 5 2 C5 3.32 5 4.64 5 6 C5.66 6.66 6.32 7.32 7 8 C4.688 8.625 4.688 8.625 2 9 C1.01 8.34 0.02 7.68 -1 7 C-1.25 3.938 -1.25 3.938 -1 1 C-0.67 0.67 -0.34 0.34 0 0 Z " fill="#D1952C" transform="translate(244,108)"/>
<path d="M0 0 C2.97 0 5.94 0 9 0 C9.33 0.99 9.66 1.98 10 3 C9.01 4.485 9.01 4.485 8 6 C5.69 5.67 3.38 5.34 1 5 C0.67 3.35 0.34 1.7 0 0 Z " fill="#E8B94F" transform="translate(233,109)"/>
<path d="M0 0 C0.66 0 1.32 0 2 0 C2 2.31 2 4.62 2 7 C2.66 7 3.32 7 4 7 C4 7.66 4 8.32 4 9 C4.66 9.33 5.32 9.66 6 10 C4.68 10 3.36 10 2 10 C2 9.34 2 8.68 2 8 C0.68 7.67 -0.64 7.34 -2 7 C-2.125 4.625 -2.125 4.625 -2 2 C-1.34 1.34 -0.68 0.68 0 0 Z M-1 10 C2 11 2 11 2 11 Z " fill="#E7B64B" transform="translate(224,112)"/>
<path d="M0 0 C1.938 0.375 1.938 0.375 4 1 C4.33 1.66 4.66 2.32 5 3 C4.01 3.495 4.01 3.495 3 4 C3.021 5.052 3.041 6.104 3.062 7.188 C3.011 10.327 2.735 12.969 2 16 C1.67 16 1.34 16 1 16 C0.67 12.7 0.34 9.4 0 6 C-0.66 6 -1.32 6 -2 6 C-1.34 4.02 -0.68 2.04 0 0 Z " fill="#F0C965" transform="translate(229,68)"/>
<path d="M0 0 C1.32 0.33 2.64 0.66 4 1 C3.75 2.875 3.75 2.875 3 5 C1.667 5.667 0.333 6.333 -1 7 C-1.372 8.323 -1.706 9.657 -2 11 C-3.485 11.99 -3.485 11.99 -5 13 C-4.67 12.01 -4.34 11.02 -4 10 C-3.933 8.439 -3.915 6.875 -3.938 5.312 C-3.947 4.504 -3.956 3.696 -3.965 2.863 C-3.976 2.248 -3.988 1.634 -4 1 C-1 2 -1 2 2 4 C2 3.01 2 2.02 2 1 C1.34 0.67 0.68 0.34 0 0 Z " fill="#EDC86D" transform="translate(216,114)"/>
<path d="M0 0 C0.99 0.33 1.98 0.66 3 1 C2.34 1 1.68 1 1 1 C1.33 1.66 1.66 2.32 2 3 C3.98 2.34 5.96 1.68 8 1 C8.33 2.32 8.66 3.64 9 5 C4.545 5.495 4.545 5.495 0 6 C-0.382 4.344 -0.714 2.675 -1 1 C-0.67 0.67 -0.34 0.34 0 0 Z " fill="#CD9639" transform="translate(259,105)"/>
<path d="M0 0 C5.625 -0.25 5.625 -0.25 9 2 C8 4 8 4 5.688 4.812 C3 5 3 5 0.688 3.562 C0.131 3.047 -0.426 2.531 -1 2 C-0.67 1.34 -0.34 0.68 0 0 Z " fill="#E5B349" transform="translate(228,99)"/>
<path d="M0 0 C2.64 0.99 5.28 1.98 8 3 C7.67 3.66 7.34 4.32 7 5 C4.03 5 1.06 5 -2 5 C-1.34 3.35 -0.68 1.7 0 0 Z " fill="#77787B" transform="translate(193,272)"/>
<path d="M0 0 C2.31 0 4.62 0 7 0 C7 2.97 7 5.94 7 9 C5.35 9.33 3.7 9.66 2 10 C2.33 9.34 2.66 8.68 3 8 C3.66 8 4.32 8 5 8 C5 6.35 5 4.7 5 3 C2.03 2.505 2.03 2.505 -1 2 C-0.67 1.34 -0.34 0.68 0 0 Z " fill="#8B4509" transform="translate(214,112)"/>
<path d="M0 0 C2 1 2 1 2.75 2.75 C3.072 5.644 2.227 7.401 1 10 C-0.32 9.67 -1.64 9.34 -3 9 C-2.01 6.03 -1.02 3.06 0 0 Z " fill="#EFC969" transform="translate(265,77)"/>
<path d="M0 0 C2.383 -0.293 2.383 -0.293 5.125 -0.188 C6.035 -0.16 6.945 -0.133 7.883 -0.105 C8.581 -0.071 9.28 -0.036 10 0 C10 0.66 10 1.32 10 2 C7.118 2.961 5.301 3.106 2.312 3.062 C1.1 3.049 1.1 3.049 -0.137 3.035 C-1.059 3.018 -1.059 3.018 -2 3 C-1.34 2.01 -0.68 1.02 0 0 Z " fill="#8C5F3B" transform="translate(216,124)"/>
<path d="M0 0 C0 0.66 0 1.32 0 2 C-7.429 4.429 -7.429 4.429 -11 3 C-8.218 -1.174 -4.534 -0.223 0 0 Z " fill="#81481B" transform="translate(270,114)"/>
<path d="M0 0 C0.99 0.33 1.98 0.66 3 1 C2.67 1.66 2.34 2.32 2 3 C1.34 2.01 0.68 1.02 0 0 Z M6 9 C6.66 9 7.32 9 8 9 C10.152 12.228 10.201 13.284 10 17 C7.846 14.378 6.599 12.356 6 9 Z " fill="#E7B64B" transform="translate(209,89)"/>
<path d="M0 0 C0.33 0.99 0.66 1.98 1 3 C-0.145 4.824 -0.145 4.824 -1.812 6.688 C-2.355 7.31 -2.898 7.933 -3.457 8.574 C-5 10 -5 10 -7 10 C-5.606 5.565 -3.394 3.126 0 0 Z " fill="#F6DA89" transform="translate(249,89)"/>
<path d="M0 0 C1.32 0.66 2.64 1.32 4 2 C4 2.66 4 3.32 4 4 C4.66 4 5.32 4 6 4 C6 4.66 6 5.32 6 6 C4.68 5.67 3.36 5.34 2 5 C1.67 5.66 1.34 6.32 1 7 C0.34 5.02 -0.32 3.04 -1 1 C-0.67 0.67 -0.34 0.34 0 0 Z M-2 5 C0 6 0 6 0 6 Z " fill="#F5D373" transform="translate(226,94)"/>
<path d="M0 0 C0.33 0.99 0.66 1.98 1 3 C-1.31 4.98 -3.62 6.96 -6 9 C-5.694 5.326 -5.242 4.219 -2.438 1.688 C-1.633 1.131 -0.829 0.574 0 0 Z " fill="#D3972F" transform="translate(264,90)"/>
<path d="M0 0 C2 1 2 1 2 1 Z M-2 1 C0.504 2.252 2.064 4 4 6 C3.257 5.959 2.515 5.918 1.75 5.875 C-1.088 6.004 -2.588 6.571 -5 8 C-4.691 7.402 -4.381 6.804 -4.062 6.188 C-2.898 3.91 -2.898 3.91 -2 1 Z " fill="#C17F1F" transform="translate(217,119)"/>
<path d="M0 0 C1 2 1 2 1 6 C-2 8 -2 8 -5 8 C-3.814 4.625 -2.724 2.353 0 0 Z " fill="#874108" transform="translate(264,93)"/>
<path d="M0 0 C0.99 0.66 1.98 1.32 3 2 C3 2.66 3 3.32 3 4 C1.374 5.382 -0.293 6.719 -2 8 C-2.33 6.02 -2.66 4.04 -3 2 C-2.01 2.33 -1.02 2.66 0 3 C0 2.01 0 1.02 0 0 Z " fill="#EDC86B" transform="translate(256,67)"/>
<path d="M0 0 C2.475 0.99 2.475 0.99 5 2 C5 2.99 5 3.98 5 5 C3.35 4.67 1.7 4.34 0 4 C0 2.68 0 1.36 0 0 Z M5 5 C8 6 8 6 8 6 Z " fill="#A05A11" transform="translate(210,106)"/>
<path d="M0 0 C1.207 0.031 1.207 0.031 2.438 0.062 C2.438 3.062 2.438 3.062 1.438 6.062 C1.107 5.073 0.778 4.082 0.438 3.062 C-1.563 1.854 -1.563 1.854 -3.562 1.062 C-2.562 0.062 -2.562 0.062 0 0 Z " fill="#A86112" transform="translate(241.5625,105.9375)"/>
<path d="M0 0 C0.66 0.66 1.32 1.32 2 2 C1.34 2 0.68 2 0 2 C0 1.34 0 0.68 0 0 Z M2 2 C7.75 3.75 7.75 3.75 10 6 C8.35 6.33 6.7 6.66 5 7 C4.01 5.35 3.02 3.7 2 2 Z " fill="#B77219" transform="translate(223,99)"/>
<path d="M0 0 C3.375 0.547 5.082 1.055 8 3 C8 3.66 8 4.32 8 5 C4.758 4.65 3.385 4.438 1.188 1.938 C0.796 1.298 0.404 0.659 0 0 Z " fill="#FAE8A6" transform="translate(218,94)"/>
<path d="M0 0 C0.33 0 0.66 0 1 0 C2.007 5.035 1.974 8.239 0 13 C-0.33 13 -0.66 13 -1 13 C-1.222 11.398 -1.427 9.793 -1.625 8.188 C-1.741 7.294 -1.857 6.401 -1.977 5.48 C-2 3 -2 3 0 0 Z " fill="#BD7B1E" transform="translate(257,71)"/>
<path d="M0 0 C0.99 0.33 1.98 0.66 3 1 C2.34 1 1.68 1 1 1 C1 1.66 1 2.32 1 3 C1.66 3.33 2.32 3.66 3 4 C2.67 4.66 2.34 5.32 2 6 C0.68 5.34 -0.64 4.68 -2 4 C-2 3.01 -2 2.02 -2 1 C-1.34 0.67 -0.68 0.34 0 0 Z " fill="#C48425" transform="translate(209,102)"/>
<path d="M0 0 C-0.33 1.32 -0.66 2.64 -1 4 C-2.65 3.67 -4.3 3.34 -6 3 C-3.375 0 -3.375 0 0 0 Z " fill="#D79D35" transform="translate(202,89)"/>
<path d="M0 0 C2.007 0.287 4.009 0.619 6 1 C6 1.66 6 2.32 6 3 C4.35 3.33 2.7 3.66 1 4 C0.34 3.01 -0.32 2.02 -1 1 C-0.67 0.67 -0.34 0.34 0 0 Z M3 4 C3.33 4.66 3.66 5.32 4 6 C3.01 5.67 2.02 5.34 1 5 C1.66 4.67 2.32 4.34 3 4 Z " fill="#B16915" transform="translate(241,87)"/>
<path d="M0 0 C0.66 0.33 1.32 0.66 2 1 C1.34 3.64 0.68 6.28 0 9 C-0.66 9 -1.32 9 -2 9 C-2 7.35 -2 5.7 -2 4 C-1.34 4 -0.68 4 0 4 C0 2.68 0 1.36 0 0 Z " fill="#B66F18" transform="translate(240,95)"/>
<path d="M0 0 C2.375 0.25 2.375 0.25 5 1 C6.312 3.062 6.312 3.062 7 5 C4.69 4.01 2.38 3.02 0 2 C0 1.34 0 0.68 0 0 Z " fill="#F4D57C" transform="translate(210,103)"/>
<path d="M0 0 C1.938 0.375 1.938 0.375 4 1 C4.33 1.66 4.66 2.32 5 3 C3.35 3.66 1.7 4.32 0 5 C-0.33 4.01 -0.66 3.02 -1 2 C-0.67 1.34 -0.34 0.68 0 0 Z " fill="#FAE59F" transform="translate(229,68)"/>
<path d="M0 0 C2.475 0.495 2.475 0.495 5 1 C5 1.99 5 2.98 5 4 C3.68 4 2.36 4 1 4 C0.67 2.68 0.34 1.36 0 0 Z " fill="#BE7A1D" transform="translate(213,114)"/>
<path d="M0 0 C1.65 0.33 3.3 0.66 5 1 C3 3 3 3 0.375 3.125 C-0.409 3.084 -1.192 3.043 -2 3 C-1.34 2.01 -0.68 1.02 0 0 Z " fill="#874108" transform="translate(216,124)"/>
<path d="M0 0 C0.66 0.33 1.32 0.66 2 1 C2 1.66 2 2.32 2 3 C-0.31 3.33 -2.62 3.66 -5 4 C-5 3.34 -5 2.68 -5 2 C-2.625 0.938 -2.625 0.938 0 0 Z " fill="#874108" transform="translate(266,109)"/>
<path d="M0 0 C1.65 1.65 3.3 3.3 5 5 C3.68 5.33 2.36 5.66 1 6 C0.67 4.02 0.34 2.04 0 0 Z " fill="#AA6213" transform="translate(221,101)"/>
<path d="M0 0 C2.97 0.495 2.97 0.495 6 1 C4.68 1.99 3.36 2.98 2 4 C1.34 2.68 0.68 1.36 0 0 Z " fill="#FAE5A1" transform="translate(195,87)"/>
<path d="M0 0 C0.66 0 1.32 0 2 0 C1.67 1.32 1.34 2.64 1 4 C-0.32 3.67 -1.64 3.34 -3 3 C-2.01 2.67 -1.02 2.34 0 2 C0 1.34 0 0.68 0 0 Z " fill="#82440E" transform="translate(219,118)"/>
<path d="M0 0 C0.66 0.66 1.32 1.32 2 2 C3.317 2.697 4.649 3.37 6 4 C4.35 4.33 2.7 4.66 1 5 C0.67 3.35 0.34 1.7 0 0 Z " fill="#BD791C" transform="translate(235,112)"/>
<path d="M0 0 C0.33 0.99 0.66 1.98 1 3 C-0.65 3.33 -2.3 3.66 -4 4 C-4.33 3.34 -4.66 2.68 -5 2 C-4.361 1.856 -3.721 1.711 -3.062 1.562 C-1.025 1.19 -1.025 1.19 0 0 Z " fill="#EABD55" transform="translate(241,111)"/>
<path d="M0 0 C0 0.99 0 1.98 0 3 C-1.485 3.99 -1.485 3.99 -3 5 C-3 4.01 -3 3.02 -3 2 C-2.01 1.34 -1.02 0.68 0 0 Z " fill="#CF9128" transform="translate(241,109)"/>
<path d="M0 0 C0.66 0.66 1.32 1.32 2 2 C1.625 4.625 1.625 4.625 1 7 C0.34 6.67 -0.32 6.34 -1 6 C-0.67 4.02 -0.34 2.04 0 0 Z " fill="#F3D585" transform="translate(253,73)"/>
<path d="M0 0 C0.66 0 1.32 0 2 0 C2.33 1.32 2.66 2.64 3 4 C1.68 4.33 0.36 4.66 -1 5 C-0.67 3.35 -0.34 1.7 0 0 Z " fill="#F0CC71" transform="translate(268,71)"/>
<path d="M0 0 C1.65 1.32 3.3 2.64 5 4 C3.35 3.67 1.7 3.34 0 3 C0 2.01 0 1.02 0 0 Z " fill="#FBE9A9" transform="translate(218,89)"/>
<path d="M0 0 C1.98 0.99 1.98 0.99 4 2 C3.67 3.32 3.34 4.64 3 6 C3 5.01 3 4.02 3 3 C2.01 2.67 1.02 2.34 0 2 C0 1.34 0 0.68 0 0 Z " fill="#F2E1AD" transform="translate(208,77)"/>
<path d="M0 0 C1.485 0.99 1.485 0.99 3 2 C3 2.66 3 3.32 3 4 C2.01 4.33 1.02 4.66 0 5 C0 3.35 0 1.7 0 0 Z " fill="#E1AE44" transform="translate(256,67)"/>
<path d="M0 0 C0.66 0.33 1.32 0.66 2 1 C1.67 1.99 1.34 2.98 1 4 C0.01 3.67 -0.98 3.34 -2 3 C-1.34 2.01 -0.68 1.02 0 0 Z " fill="#F2E9C8" transform="translate(255,66)"/>
<path d="M0 0 C0.33 0.99 0.66 1.98 1 3 C-0.485 3.99 -0.485 3.99 -2 5 C-1.125 1.125 -1.125 1.125 0 0 Z " fill="#EFC762" transform="translate(260,94)"/>
<path d="M0 0 C0.66 0.66 1.32 1.32 2 2 C0.02 2.99 0.02 2.99 -2 4 C-1.34 2.68 -0.68 1.36 0 0 Z " fill="#B16915" transform="translate(257,113)"/>
<path d="M0 0 C0.99 0.33 1.98 0.66 3 1 C1.515 1.99 1.515 1.99 0 3 C-0.66 2.34 -1.32 1.68 -2 1 C-1.34 0.67 -0.68 0.34 0 0 Z " fill="#F0C965" transform="translate(206,97)"/>
<path d="M0 0 C0.66 0 1.32 0 2 0 C2 0.99 2 1.98 2 3 C1.01 2.67 0.02 2.34 -1 2 C-0.67 1.34 -0.34 0.68 0 0 Z " fill="#C68522" transform="translate(209,80)"/>
<path d="M0 0 C0.66 0 1.32 0 2 0 C1.67 0.99 1.34 1.98 1 3 C0.34 3 -0.32 3 -1 3 C-0.67 2.01 -0.34 1.02 0 0 Z " fill="#C68522" transform="translate(269,75)"/>
</svg>