<?xml version="1.0" encoding="UTF-8"?>
<svg version="1.1" xmlns="http://www.w3.org/2000/svg" width="256" height="256">
<path d="M0 0 C1.7159774 -0.00571094 3.43195101 -0.01267798 5.1479187 -0.02079773 C9.78440331 -0.03866516 14.420698 -0.03757278 19.05720663 -0.03185534 C22.93867373 -0.02875392 26.82010485 -0.03486658 30.70156682 -0.04089409 C39.86422633 -0.0549169 49.02679256 -0.05339698 58.18945312 -0.04199219 C67.61781236 -0.03051545 77.04588698 -0.04458433 86.47420871 -0.07138866 C94.59174844 -0.09359587 102.70919916 -0.10017168 110.82676709 -0.09431225 C115.66502586 -0.0909532 120.50310229 -0.09328739 125.3413353 -0.11056328 C129.8936731 -0.12611042 134.44559166 -0.12199135 138.99791336 -0.10325813 C140.66026483 -0.09959353 142.32264791 -0.10261797 143.98497009 -0.11314392 C159.71978438 -0.20510452 173.23259887 3.06255643 185.08642578 14.02905273 C197.16983172 26.84626875 199.35371432 40.68318478 199.30297852 57.50512695 C199.30868945 59.22110435 199.3156565 60.93707796 199.32377625 62.65304565 C199.34164368 67.28953027 199.34055129 71.92582495 199.33483386 76.56233358 C199.33173243 80.44380068 199.3378451 84.32523181 199.34387261 88.20669377 C199.35789542 97.36935328 199.3563755 106.53191952 199.3449707 115.69458008 C199.33349396 125.12293931 199.34756284 134.55101393 199.37436718 143.97933567 C199.39657439 152.09687539 199.4031502 160.21432611 199.39729077 168.33189404 C199.39393171 173.17015282 199.39626591 178.00822924 199.41354179 182.84646225 C199.42908894 187.39880005 199.42496987 191.95071861 199.40623665 196.50304031 C199.40257205 198.16539178 199.40559649 199.82777486 199.41612244 201.49009705 C199.51072605 217.6771408 195.8756987 230.92781239 184.71142578 243.15405273 C172.1196704 254.89882906 158.19775869 256.8575684 141.79785156 256.80810547 C140.08187416 256.81381641 138.36590055 256.82078345 136.64993286 256.8289032 C132.01344825 256.84677063 127.37715356 256.84567825 122.74064493 256.83996081 C118.85917783 256.83685939 114.97774671 256.84297205 111.09628475 256.84899956 C101.93362523 256.86302237 92.771059 256.86150245 83.60839844 256.85009766 C74.18003921 256.83862091 64.75196458 256.85268979 55.32364285 256.87949413 C47.20610312 256.90170134 39.0886524 256.90827715 30.97108448 256.90241772 C26.1328257 256.89905867 21.29474927 256.90139286 16.45651627 256.91866875 C11.90417847 256.93421589 7.35225991 256.93009682 2.7999382 256.9113636 C1.13758673 256.907699 -0.52479635 256.91072344 -2.18711853 256.92124939 C-18.37416229 257.015853 -31.62483387 253.38082565 -43.85107422 242.21655273 C-55.59585054 229.62479735 -57.55458988 215.70288564 -57.50512695 199.30297852 C-57.51083789 197.58700111 -57.51780494 195.87102751 -57.52592468 194.15505981 C-57.54379212 189.5185752 -57.54269973 184.88228052 -57.5369823 180.24577188 C-57.53388087 176.36430479 -57.53999354 172.48287366 -57.54602104 168.6014117 C-57.56004385 159.43875219 -57.55852393 150.27618595 -57.54711914 141.11352539 C-57.5356424 131.68516616 -57.54971128 122.25709154 -57.57651561 112.8287698 C-57.59872283 104.71123007 -57.60529863 96.59377936 -57.5994392 88.47621143 C-57.59608015 83.63795265 -57.59841435 78.79987623 -57.61569023 73.96164322 C-57.63123737 69.40930542 -57.62711831 64.85738686 -57.60838509 60.30506516 C-57.60472048 58.64271368 -57.60774492 56.98033061 -57.61827087 55.31800842 C-57.71023147 39.58319413 -54.44257052 26.07037965 -43.47607422 14.21655273 C-30.65885821 2.1331468 -16.82194217 -0.05073581 0 0 Z M-37.16357422 28.65405273 C-42.11564031 35.68279171 -44.21840904 42.66490319 -44.24824524 51.1889801 C-44.25192193 51.87067337 -44.25559862 52.55236665 -44.25938672 53.25471729 C-44.27039696 55.53830878 -44.27426291 57.82185472 -44.27807617 60.10546875 C-44.28434298 61.74336389 -44.29098997 63.38125761 -44.29798889 65.01914978 C-44.31901092 70.39874282 -44.32939151 75.77833607 -44.33935547 81.15795898 C-44.34340412 83.01257784 -44.34752107 84.86719655 -44.35170555 86.72181511 C-44.3707554 95.43832613 -44.38498525 104.15482871 -44.39331752 112.87135655 C-44.40308089 122.91812605 -44.42937775 132.9646747 -44.46981841 143.01136643 C-44.50003292 150.78565419 -44.51479156 158.55987885 -44.51809853 166.33422416 C-44.52044348 170.97303855 -44.52933104 175.61161696 -44.55455971 180.25036812 C-44.57793812 184.61955958 -44.58203466 188.98836133 -44.57179832 193.35759926 C-44.57130517 194.95426484 -44.57755999 196.55095024 -44.59135437 198.1475563 C-44.69788835 211.21792724 -42.89626347 222.08615661 -33.66357422 232.02905273 C-25.50477961 239.59086237 -17.49074049 243.51211014 -6.31614685 243.55122375 C-5.29360694 243.55673879 -5.29360694 243.55673879 -4.25040966 243.56236523 C-1.96681817 243.57337547 0.31672777 243.57724142 2.6003418 243.58105469 C4.23823693 243.58732149 5.87613065 243.59396849 7.51402283 243.60096741 C12.89361586 243.62198943 18.27320911 243.63237002 23.65283203 243.64233398 C25.50745089 243.64638263 27.3620696 243.65049959 29.21668816 243.65468407 C37.93319918 243.67373391 46.64970176 243.68796377 55.36622959 243.69629604 C65.4129991 243.70605941 75.45954775 243.73235627 85.50623947 243.77279693 C93.28052724 243.80301143 101.0547519 243.81777008 108.82909721 243.82107705 C113.4679116 243.823422 118.10649 243.83230955 122.74524117 243.85753822 C127.11443262 243.88091664 131.48323437 243.88501318 135.85247231 243.87477684 C137.44913788 243.87428369 139.04582329 243.88053851 140.64242935 243.89433289 C153.71280029 244.00086686 164.58102966 242.19924199 174.52392578 232.96655273 C182.4454683 224.41962528 186.01054333 216.25942299 186.03936768 204.56806946 C186.0423388 203.8929833 186.04530992 203.21789714 186.04837108 202.52235383 C186.05702131 200.26716851 186.0585632 198.01203651 186.06005859 195.75683594 C186.06468942 194.13687528 186.06971444 192.51691571 186.07510376 190.8969574 C186.08820539 186.50002846 186.0946685 182.10311477 186.09911442 177.70616937 C186.10204912 174.95639037 186.10615471 172.20661551 186.11061859 169.45683861 C186.12428844 160.84551587 186.13395726 152.23420262 186.13782048 143.62286979 C186.14229829 133.69726097 186.15983548 123.77179007 186.18882108 113.84622318 C186.21047175 106.16449813 186.22052659 98.48281178 186.2218616 90.80105656 C186.22290732 86.21766711 186.2287653 81.63440739 186.24668121 77.05105019 C186.26322024 72.73606557 186.26528925 68.42130738 186.25654221 64.10630226 C186.25577491 62.52857352 186.26007373 60.95083231 186.27000046 59.37313461 C186.35030325 45.80726165 184.75995092 34.95118039 175.39892578 24.65405273 C174.57392578 23.91155273 173.74892578 23.16905273 172.89892578 22.40405273 C172.15642578 21.72342773 171.41392578 21.04280273 170.64892578 20.34155273 C163.62018681 15.38948664 156.63807533 13.28671792 148.11399841 13.25688171 C147.43230514 13.25320503 146.75061187 13.24952834 146.04826123 13.24574023 C143.76466974 13.23473 141.48112379 13.23086405 139.19750977 13.22705078 C137.55961463 13.22078398 135.92172091 13.21413698 134.28382874 13.20713806 C128.9042357 13.18611604 123.52464245 13.17573545 118.14501953 13.16577148 C116.29040067 13.16172283 114.43578196 13.15760588 112.58116341 13.1534214 C103.86465238 13.13437156 95.1481498 13.1201417 86.43162197 13.11180943 C76.38485247 13.10204606 66.33830381 13.0757492 56.29161209 13.03530854 C48.51732433 13.00509404 40.74309966 12.99033539 32.96875435 12.98702842 C28.32993996 12.98468347 23.69136156 12.97579591 19.0526104 12.95056725 C14.68341894 12.92718883 10.31461719 12.92309229 5.94537926 12.93332863 C4.34871368 12.93382178 2.75202828 12.92756696 1.15542221 12.91377258 C-15.03131687 12.78183771 -25.99761446 16.47300572 -37.16357422 28.65405273 Z " fill="#F9F4F4" transform="translate(57.10107421875,-0.404052734375)"/>
<path d="M0 0 C3.97604056 3.29720436 5.59457975 5.02419908 6.109375 10.34375 C6.04978846 13.62100968 5.88087424 14.28562595 3.734375 16.96875 C-0.09292796 18.88240148 -3.12587134 19.34446712 -7.265625 18.46875 C-8.9376775 17.68935778 -10.58331286 16.85159792 -12.203125 15.96875 C-17.08818 13.35841527 -20.78446615 12.32218106 -26.265625 13.46875 C-33.14560012 15.80670562 -37.90933573 18.96135946 -41.265625 25.46875 C-44.25848786 31.59699299 -44.21202845 39.26174486 -42.73046875 45.84765625 C-40.48871283 52.3034233 -37.48267094 56.00907129 -31.578125 59.28125 C-25.69266343 62.00823806 -21.13457976 62.48822908 -14.87890625 60.83984375 C-8.77545429 58.59014162 -6.05515934 55.24406733 -3.265625 49.46875 C-4.14605469 49.51515625 -5.02648437 49.5615625 -5.93359375 49.609375 C-7.67576172 49.66351563 -7.67576172 49.66351563 -9.453125 49.71875 C-10.60167969 49.76515625 -11.75023437 49.8115625 -12.93359375 49.859375 C-16.9215578 49.39185284 -18.47515091 48.30003541 -21.265625 45.46875 C-22.52172515 41.7789558 -22.60915313 40.20488171 -20.953125 36.65625 C-19.265625 34.46875 -19.265625 34.46875 -17.265625 33.46875 C-13.00025693 33.19756775 -8.72613306 33.23709893 -4.453125 33.21875 C-3.26396484 33.198125 -2.07480469 33.1775 -0.84960938 33.15625 C0.87225586 33.14851563 0.87225586 33.14851563 2.62890625 33.140625 C3.67925049 33.1312793 4.72959473 33.12193359 5.81176758 33.11230469 C9.18909389 33.52420816 11.01701008 34.44957842 13.734375 36.46875 C17.08498415 41.49466373 16.29712345 47.28614739 15.26953125 53.09765625 C12.57333613 63.29214549 6.81183619 71.06982855 -2.265625 76.46875 C-12.81598822 81.52693832 -24.78326587 82.39360195 -35.88671875 78.515625 C-42.5563967 75.58052863 -48.43080677 71.97507077 -53.265625 66.46875 C-54.00232422 65.71851563 -54.00232422 65.71851563 -54.75390625 64.953125 C-62.88174131 56.32108181 -64.65137627 45.7333851 -64.54296875 34.2421875 C-63.83617575 24.62582083 -60.74588992 16.57969764 -54.265625 9.46875 C-53.78738281 8.87707031 -53.30914062 8.28539063 -52.81640625 7.67578125 C-40.29527182 -6.61155854 -15.96734054 -10.79171982 0 0 Z " fill="#F9F4F4" transform="translate(187.265625,90.53125)"/>
<path d="M0 0 C3.36093018 2.80679833 6.14846622 5.21962221 7.7421875 9.3828125 C7.56576355 12.73486761 7.30488037 15.35672551 5.6796875 18.3203125 C2.3897893 20.12445022 -0.68854595 20.18636466 -4.2578125 19.3828125 C-6.46484375 18.03515625 -6.46484375 18.03515625 -8.6953125 16.3828125 C-12.71036889 13.42544861 -15.37683877 12.78232481 -20.3125 13.07421875 C-22.46692284 13.3615787 -22.46692284 13.3615787 -25.2578125 14.3828125 C-26.12434553 17.77016891 -26.5737276 19.68561594 -25.10620117 22.92431641 C-22.93471817 25.81255228 -21.31197236 26.65345165 -17.99609375 28.03125 C-16.44051758 28.70414063 -16.44051758 28.70414063 -14.85351562 29.390625 C-13.22833008 30.06738281 -13.22833008 30.06738281 -11.5703125 30.7578125 C-2.59270518 34.49893536 5.48638221 38.0921289 10.7421875 46.6328125 C12.92826128 54.83058918 12.55409115 61.69107719 8.359375 69.15625 C3.24420888 76.19887002 -4.82990014 79.97816044 -13.2578125 81.3828125 C-23.61738725 82.14476142 -32.91596612 80.97869103 -41.2578125 74.3828125 C-45.68285369 70.36004778 -48.03464565 67.88228122 -48.5703125 61.8828125 C-48.24161237 58.20137101 -47.98345856 56.82649517 -45.2578125 54.3828125 C-41.9117162 52.98860571 -40.36264224 53.34981054 -36.8828125 54.4453125 C-33.34493186 56.10974212 -30.60137301 58.44434265 -27.73828125 61.078125 C-24.37689338 64.0404035 -21.03267998 63.65575134 -16.7421875 63.59375 C-13.45539555 63.31468276 -11.64122152 62.68933736 -9.2578125 60.3828125 C-8.09969406 57.05322199 -8.00562635 55.17816883 -9.0703125 51.8203125 C-13.76991999 46.58360701 -20.90128497 44.51960588 -27.3203125 42.0078125 C-34.88011722 38.86519098 -41.31287542 35.29482031 -44.8828125 27.6328125 C-46.9598224 21.33478248 -46.91196653 15.16645218 -44.23828125 9.05078125 C-40.59655213 2.81937809 -35.85034998 -0.73295235 -29.2578125 -3.6171875 C-19.55423645 -6.01007615 -8.34008165 -5.9736917 0 0 Z " fill="#F9F4F4" transform="translate(101.2578125,89.6171875)"/>
</svg>
